<svg width="100" height="65" viewBox="0 0 100 65" fill="none" xmlns="http://www.w3.org/2000/svg">
<path d="M99.4296 50.954C99.6804 50.1645 99.2436 49.3211 98.4541 49.0703L85.5876 44.9833C84.798 44.7325 83.9547 45.1693 83.7039 45.9588C83.4531 46.7484 83.8898 47.5917 84.6794 47.8425L96.1162 51.4754L92.4833 62.9123C92.2325 63.7019 92.6693 64.5452 93.4588 64.796C94.2484 65.0468 95.0918 64.6101 95.3426 63.8205L99.4296 50.954ZM0.525093 0.226862C0.140126 2.30569 0.637318 5.10977 1.69068 8.19809C2.76385 11.3445 4.48709 14.9922 6.78082 18.8522C11.3684 26.5723 18.3045 35.253 27.1018 42.5894C44.719 57.281 69.9908 66.6939 98.6897 51.8319L97.3102 49.1679C70.0092 63.306 46.031 54.4689 29.0232 40.2855C20.508 33.1844 13.7879 24.7714 9.35984 17.3197C7.14576 13.5937 5.52134 10.136 4.53006 7.22963C3.51896 4.26522 3.23491 2.0693 3.47494 0.773129L0.525093 0.226862Z" fill="#F27777"/>
</svg>
